<svg xmlns="http://www.w3.org/2000/svg" viewBox="0 0 294.71 145.47"><defs><style>.cls-1{fill:#fff;}.cls-2{fill:#da0200;}.cls-3{fill:#ffff3c;}.cls-4{fill:#8fff3c;}</style></defs><g id="Layer_2" data-name="Layer 2"><g id="PRINT"><polygon class="cls-1" points="86.27 52.28 81.18 26.47 71.95 18.35 71.54 16.49 74.93 8.74 70.13 3.48 63.6 10.69 62.41 11.22 15.02 11.22 14.47 11.12 4.03 7.34 12.3 34.26 53.41 34.26 53.41 37.48 11.11 37.48 9.57 36.34 0 5.2 2.09 3.21 15.3 8 61.69 8 68.93 0.01 71.31 0 78.02 7.34 78.3 9.07 74.97 16.7 83.72 24.42 84.23 25.31 89.43 51.66 86.27 52.28"/><polygon class="cls-1" points="92.84 80.15 45.01 80.15 45.01 76.92 90.92 76.92 88.21 61.62 91.38 61.06 94.43 78.25 92.84 80.15"/><polygon class="cls-1" points="29.2 145.47 27.95 145.46 9.14 137.39 8.2 135.58 10.48 124.7 1.03 113.59 2.26 110.94 48.23 110.94 48.23 114.16 5.74 114.16 13.44 123.22 13.79 124.59 11.62 134.95 28.61 142.24 84.29 119.55 85.22 119.46 98.51 122.17 100.32 113.99 91.08 104.69 90.61 103.47 91.31 89.61 94.53 89.77 93.87 102.92 103.23 112.34 103.66 113.82 101.31 124.42 99.42 125.65 85.06 122.72 29.2 145.47"/><polygon class="cls-1" points="3.25 102.42 0.63 100.55 21.08 71.84 13.18 47.44 16.25 46.44 24.39 71.62 24.17 73.06 3.25 102.42"/><polygon class="cls-1" points="11.87 114.09 9.2 112.28 17.59 99.87 18.92 99.16 27.53 99.16 27.53 102.39 19.78 102.39 11.87 114.09"/><polygon class="cls-1" points="73.97 79.38 66.59 68.98 58.65 68.98 58.65 65.75 67.42 65.75 68.73 66.43 76.6 77.51 73.97 79.38"/><polygon class="cls-1" points="29.16 36.6 26.36 35 32.76 23.8 34.15 22.99 43.28 22.99 43.28 26.22 35.09 26.22 29.16 36.6"/><path class="cls-1" d="M54.79,73.76a6.4,6.4,0,1,1,6.5-6.39A6.45,6.45,0,0,1,54.79,73.76Zm0-9.57a3.18,3.18,0,1,0,3.27,3.18A3.23,3.23,0,0,0,54.79,64.19Z"/><path class="cls-1" d="M57.26,42.27a6.4,6.4,0,1,1,6.5-6.4A6.45,6.45,0,0,1,57.26,42.27Zm0-9.58a3.18,3.18,0,1,0,3.28,3.18A3.23,3.23,0,0,0,57.26,32.69Z"/><path class="cls-1" d="M46.59,31a6.4,6.4,0,1,1,6.49-6.4A6.46,6.46,0,0,1,46.59,31Zm0-9.57a3.18,3.18,0,1,0,3.27,3.17A3.22,3.22,0,0,0,46.59,21.43Z"/><path class="cls-1" d="M41.58,84.71a6.4,6.4,0,1,1,6.49-6.4A6.45,6.45,0,0,1,41.58,84.71Zm0-9.57a3.18,3.18,0,1,0,3.27,3.17A3.23,3.23,0,0,0,41.58,75.14Z"/><path class="cls-1" d="M30.93,107.75a6.4,6.4,0,1,1,6.5-6.4A6.45,6.45,0,0,1,30.93,107.75Zm0-9.58a3.18,3.18,0,1,0,3.27,3.18A3.23,3.23,0,0,0,30.93,98.17Z"/><path class="cls-1" d="M52.15,119a6.4,6.4,0,1,1,6.5-6.4A6.45,6.45,0,0,1,52.15,119Zm0-9.57a3.17,3.17,0,1,0,3.28,3.17A3.23,3.23,0,0,0,52.15,109.38Z"/><path class="cls-1" d="M147.61,32.61h-8.87a11,11,0,0,1-7.45-2.92,9.84,9.84,0,0,1-3.11-7.18,10.08,10.08,0,0,1,3.11-7.17,10.85,10.85,0,0,1,7.45-2.92h8.87v2.92h-10A7.37,7.37,0,0,0,131,22.51a7.37,7.37,0,0,0,6.61,7.18h7V23.28h-5.89l-1.36-2.92h10.23Z"/><polygon class="cls-1" points="168.65 12.42 168.65 32.61 165.67 32.61 165.67 23.27 153.56 23.27 153.56 32.61 150.59 32.61 150.59 12.42 153.56 12.42 153.56 20.36 165.67 20.36 165.67 12.42 168.65 12.42"/><path class="cls-1" d="M149.81,62.44h2.78V42.38h-2.78Zm-.07.19h3V42.32h-3Zm0-.06V42.25h3V62.57Z"/><path class="cls-1" d="M175.13,62.57h-8.94a11,11,0,0,1-7.45-2.92,9.78,9.78,0,0,1,.07-14.35,10.85,10.85,0,0,1,7.45-2.92h8.87V45.3h-10a7.2,7.2,0,0,0,0,14.35h7V53.24h-5.89l-1.36-2.92h10.23Z"/><path class="cls-1" d="M178.88,62.44h2.79V42.38h-2.79Zm-.13.19h3V42.32h-3Zm0-.06V42.25h3V62.57Z"/><polygon class="cls-1" points="242.98 59.65 242.98 62.57 226.92 62.57 226.92 42.19 229.9 42.19 229.9 59.65 242.98 59.65"/><path class="cls-1" d="M128.25,92.4H131V72.34h-2.78Zm-.13.19h3V72.28h-3Zm0-.06V72.22h3V92.53Z"/><path class="cls-1" d="M175.45,82.44a7.38,7.38,0,1,0,7.38-7.24A7.3,7.3,0,0,0,175.45,82.44Zm7.38-10.16a10.16,10.16,0,1,1-10.36,10.16A10.25,10.25,0,0,1,182.83,72.28Z"/><path class="cls-1" d="M248.87,92.4h2.79V72.34h-2.79Zm-.13.19h3V72.28h-3Zm0-.06V72.22h3V92.53Z"/><path class="cls-1" d="M257.68,82.44a7.38,7.38,0,1,0,7.38-7.24A7.3,7.3,0,0,0,257.68,82.44Zm7.38-10.16A10.16,10.16,0,1,1,254.7,82.44,10.25,10.25,0,0,1,265.06,72.28Z"/><polygon class="cls-1" points="154.73 102.49 147.16 118.94 145.54 122.49 143.92 118.94 139.64 109.6 135.31 118.94 133.69 122.49 132.07 118.94 124.49 102.49 127.73 102.49 133.62 115.38 137.9 106.05 139.51 102.49 141.13 106.05 145.41 115.38 151.3 102.49 154.73 102.49"/><polygon class="cls-1" points="181.21 113.1 194.49 113.1 194.49 110.18 181.21 110.18 181.21 108.91 178.23 108.91 178.23 122.49 196.49 122.49 196.49 119.57 181.21 119.57 181.21 113.1"/><rect class="cls-1" x="178.23" y="102.3" width="18.26" height="2.92"/><rect class="cls-1" x="192.28" y="48.86" width="2.98" height="13.77"/><rect class="cls-1" x="184.71" y="42.32" width="18.39" height="2.92"/><rect class="cls-1" x="234.95" y="78.88" width="2.98" height="13.71"/><rect class="cls-1" x="227.38" y="72.28" width="18.39" height="2.92"/><polygon class="cls-1" points="159.59 113.1 172.86 113.1 172.86 110.18 159.59 110.18 159.59 108.91 156.61 108.91 156.61 122.49 174.87 122.49 174.87 119.57 159.59 119.57 159.59 113.1"/><rect class="cls-1" x="156.61" y="102.3" width="18.26" height="2.92"/><path class="cls-1" d="M146.64,51.08a10.27,10.27,0,0,0-10.17-8.7h-8.35V45.3h8.55a7.31,7.31,0,0,1,4.14,1.46,7.48,7.48,0,0,1,2.78,4.32,9.44,9.44,0,0,1,.13,1.46,9.55,9.55,0,0,1-.13,1.46,7.3,7.3,0,0,1-6.15,5.65H131.1V48.92h-3V62.57h9.52a10.37,10.37,0,0,0,9-8.57,12,12,0,0,0,.13-1.46A10.86,10.86,0,0,0,146.64,51.08Z"/><polygon class="cls-1" points="208.28 49.68 200.96 62.57 204.91 62.57 210.22 53.17 208.28 49.68"/><polygon class="cls-1" points="214.43 45.75 212.42 42.26 210.48 45.75 212.42 49.24 220 62.57 223.88 62.57 214.43 45.75"/><polygon class="cls-1" points="220.71 19.85 213.52 32.61 217.41 32.61 222.65 23.34 220.71 19.85"/><polygon class="cls-1" points="226.92 15.79 224.98 12.29 222.97 15.79 224.98 19.28 232.49 32.61 236.44 32.61 226.92 15.79"/><polygon class="cls-1" points="177.52 19.78 170.27 32.61 174.22 32.61 179.46 23.34 177.52 19.78"/><polygon class="cls-1" points="183.67 15.79 181.73 12.29 179.79 15.79 181.73 19.28 189.24 32.61 193.19 32.61 183.67 15.79"/><polygon class="cls-1" points="215.92 79.71 208.66 92.53 212.62 92.53 217.86 83.2 215.92 79.71"/><polygon class="cls-1" points="222.07 75.71 220.13 72.22 218.18 75.71 220.13 79.2 227.64 92.53 231.59 92.53 222.07 75.71"/><polygon class="cls-1" points="211 72.22 203.49 85.61 201.48 89.04 203.49 92.53 205.43 89.04 214.95 72.22 211 72.22"/><polygon class="cls-1" points="201.15 81.55 195.91 72.22 191.96 72.22 199.21 85.04 201.15 81.55"/><polygon class="cls-1" points="194.81 21.63 194.81 32.61 197.79 32.61 197.79 24.55 194.81 21.63"/><polygon class="cls-1" points="208.21 12.36 208.21 25.5 194.81 12.29 194.81 16.42 197.79 19.34 208.21 29.62 211.19 32.54 211.19 12.36 208.21 12.36"/><polygon class="cls-1" points="278.33 81.55 278.33 92.53 281.31 92.53 281.31 84.47 278.33 81.55"/><polygon class="cls-1" points="291.74 72.28 291.74 85.42 278.33 72.28 278.33 76.41 281.31 79.33 291.74 89.55 294.71 92.47 294.71 72.28 291.74 72.28"/><polygon class="cls-1" points="202.45 108.14 202.45 102.3 199.47 102.3 199.47 111.06 202.45 108.14"/><polygon class="cls-1" points="207.63 112.4 217.92 102.3 213.72 102.3 204.91 110.87 199.47 116.21 199.47 122.49 202.45 122.49 202.45 117.41 205.49 114.43 213.72 122.49 217.92 122.49 207.63 112.4"/><polygon class="cls-1" points="147.48 72.28 147.48 85.42 134.07 72.28 134.07 76.41 137.05 79.33 147.48 89.55 150.46 92.47 150.46 72.28 147.48 72.28"/><polygon class="cls-1" points="134.07 81.55 134.07 92.53 137.05 92.53 137.05 84.47 134.07 81.55"/><polygon class="cls-1" points="153.44 81.61 153.44 92.53 156.41 92.53 156.41 84.53 153.44 81.61"/><polygon class="cls-1" points="166.84 72.28 166.84 85.42 153.44 72.28 153.44 76.41 156.41 79.33 166.84 89.55 169.82 92.47 169.82 72.28 166.84 72.28"/><rect class="cls-2" x="123.81" y="128.44" width="38.15" height="1.33"/><rect class="cls-3" x="161.8" y="128.44" width="38.15" height="1.33"/><rect x="179.69" y="128.44" width="2.37" height="1.33"/><rect class="cls-4" x="199.78" y="128.44" width="38.15" height="1.33"/></g></g></svg>